<?xml version="1.0" standalone="no"?>
<!DOCTYPE svg PUBLIC "-//W3C//DTD SVG 20010904//EN"
 "http://www.w3.org/TR/2001/REC-SVG-20010904/DTD/svg10.dtd">
<svg version="1.0" xmlns="http://www.w3.org/2000/svg"
 width="1726.000000pt" height="1309.000000pt" viewBox="0 0 1726.000000 1309.000000"
 preserveAspectRatio="xMidYMid meet">

<g transform="translate(0.000000,1309.000000) scale(0.100000,-0.100000)"
fill="#000000" stroke="none">
<path d="M12143 11265 c-525 -70 -1002 -281 -1448 -638 -140 -113 -392 -368
-514 -522 -436 -548 -722 -1204 -865 -1985 -48 -263 -86 -634 -86 -841 0 -59
-4 -110 -8 -113 -5 -3 -62 77 -128 177 -544 828 -1098 1413 -1655 1747 -277
166 -561 272 -844 314 -85 12 -119 24 -225 74 -251 121 -482 179 -745 189
-188 7 -319 -6 -482 -47 -203 -51 -395 -132 -583 -246 -650 -392 -897 -943
-745 -1664 154 -725 686 -1609 1699 -2820 461 -551 900 -1039 1971 -2190 918
-987 1422 -1544 1799 -1990 82 -96 154 -181 162 -189 11 -12 27 -2 105 74 l92
89 39 -45 c21 -24 125 -144 230 -266 l192 -223 144 0 144 0 200 193 c333 320
910 918 1328 1377 1265 1388 2237 2675 2902 3840 828 1451 1122 2663 867 3575
-73 261 -191 497 -382 769 -422 599 -1033 995 -1692 1097 -50 7 -104 24 -145
44 -183 91 -415 165 -645 206 -155 27 -526 35 -682 14z m1989 -636 c258 -116
481 -272 699 -489 333 -330 574 -733 669 -1116 50 -201 64 -327 64 -579 0
-285 -24 -493 -95 -800 -353 -1537 -1737 -3667 -3893 -5990 -426 -459 -1300
-1345 -1326 -1345 -4 0 -41 39 -81 88 -41 48 -135 157 -209 242 -74 85 -141
163 -149 173 -13 16 14 46 295 330 1985 2005 3498 3998 4229 5567 292 625 457
1150 532 1690 25 180 25 610 0 770 -45 285 -124 522 -252 751 -127 226 -285
437 -474 631 -63 65 -111 118 -107 118 3 0 48 -19 98 -41z m-7007 -1608 c563
-271 1109 -797 1673 -1611 100 -145 296 -452 385 -606 l47 -80 15 -190 c31
-391 88 -769 170 -1134 18 -80 32 -146 31 -147 -1 -1 -35 80 -76 180 -263 653
-674 1462 -1027 2025 -408 651 -826 1166 -1251 1540 -45 39 -79 72 -75 72 5 0
53 -22 108 -49z"/>
</g>
</svg>
